<svg id="Layer_5" enable-background="new 0 0 64 64" height="512" viewBox="0 0 64 64" width="512" xmlns="http://www.w3.org/2000/svg"><g><path d="m39.951 19.517c-.233-1.424-1.462-2.517-2.951-2.517h-6.343c-1.01 0-1.964.233-2.823.637-5.884 1.831-9.834 7.19-9.834 13.363 0 7.72 6.28 14 14 14s14-6.28 14-14c0-4.615-2.262-8.859-6.049-11.483zm-9.294-.517h6.343c.552 0 1 .449 1 1v1.764c0 .888-.456 1.678-1.182 2.159l-.831-.208c-1.619-.404-3.099-1.242-4.279-2.423l-.4-.4-1.519.38c-1.808.452-3.158 1.854-3.61 3.592-.106-.391-.179-.792-.179-1.207 0-2.568 2.089-4.657 4.657-4.657zm2.343 13h-2c-1.654 0-3-1.346-3-3v-2.877c0-1.379.935-2.576 2.273-2.91l.437-.109c1.362 1.229 3.008 2.107 4.792 2.553l.498.124v3.219c0 1.654-1.346 3-3 3zm1.615 2.442c-.514.943-1.495 1.558-2.615 1.558s-2.101-.615-2.615-1.558c.822-.284 1.701-.442 2.615-.442s1.793.158 2.615.442zm-14.615-3.442c0-3.651 1.611-6.97 4.267-9.193-.171.588-.267 1.207-.267 1.85 0 1.779.692 3.451 1.949 4.707l.051.05v.586c0 1.576.748 2.967 1.891 3.884-2.401 1.08-4.309 3.082-5.247 5.611-1.651-2.056-2.644-4.66-2.644-7.495zm12 12c-2.961 0-5.669-1.083-7.764-2.867.482-2.026 1.708-3.719 3.36-4.809.845 1.616 2.505 2.676 4.404 2.676s3.559-1.06 4.404-2.676c1.652 1.091 2.878 2.783 3.36 4.809-2.095 1.784-4.803 2.867-7.764 2.867zm9.357-4.505c-.939-2.528-2.846-4.53-5.247-5.611 1.142-.917 1.89-2.308 1.89-3.884v-3.432c1.163-.796 1.885-2.075 1.979-3.496 2.537 2.261 4.021 5.473 4.021 8.928 0 2.835-.993 5.439-2.643 7.495z"/><path d="m61 47.184v-28.948l2.118-4.236-6.5-13h-49.236l-6.5 13 2.118 4.236v28.948c-1.161.414-2 1.514-2 2.816v2c0 1.654 1.346 3 3 3h44.586l6.672 6.671c.856.857 1.996 1.329 3.207 1.329 2.501 0 4.535-2.035 4.535-4.536 0-1.212-.472-2.351-1.328-3.207l-.498-.498c1.072-.457 1.826-1.521 1.826-2.759v-2c0-1.302-.839-2.402-2-2.816zm-5.618-44.184 5 10h-9.661l-3.334-10zm-23.382 44c-8.822 0-16-7.178-16-16s7.178-16 16-16 16 7.178 16 16-7.178 16-16 16zm8.586 0h-.378c.084-.043.172-.078.255-.123zm-21.964-28c-2.863 3.188-4.622 7.388-4.622 12 0 6.967 3.987 13.01 9.792 16h-18.792v-28h7.618l1.382-2.764 1.382 2.764zm-3.004-4h8.173c-1.096.565-2.129 1.232-3.08 2h-4.093zm24.59 0h8.173l-1 2h-4.093c-.951-.768-1.984-1.435-3.08-2zm5.738 27.36 1.64 1.64-3.586 3.586-1.784-1.784c1.399-.968 2.657-2.126 3.73-3.442zm1.183-1.645c1.809-2.806 2.871-6.136 2.871-9.715 0-4.612-1.759-8.812-4.622-12h3.24l1.382-2.764 1.382 2.764h7.618v28h-5.586zm5.489-23.715-1-2h8.764l-1 2zm-7.338-14 3.333 10h-9.765l-1.668-10zm-16.433 0h6.306l1.667 10h-9.64zm-2.027 0-1.667 10h-9.765l3.332-10zm-18.202 0h7.995l-3.334 10h-9.661zm3.764 12-1 2h-6.764l-1-2zm-8.382 38c-.552 0-1-.449-1-1v-2c0-.551.448-1 1-1h38.586l4 4zm54.465 8c-.677 0-1.313-.264-1.793-.743l-11.258-11.257 3.586-3.586 11.258 11.257c.478.479.742 1.116.742 1.793 0 1.398-1.138 2.536-2.535 2.536zm2.535-9c0 .551-.448 1-1 1h-.586l-4-4h4.586c.552 0 1 .449 1 1z"/><path d="m7 45h8v-8h-8zm2-6h4v4h-4z"/><path d="m7 33h5v2h-5z"/><path d="m7 29h5v2h-5z"/><path d="m7 25h5v2h-5z"/><path d="m7 21h5v2h-5z"/></g></svg>