<svg id="Capa_1" enable-background="new 0 0 512.007 512.007" height="512" viewBox="0 0 512.007 512.007" width="512" xmlns="http://www.w3.org/2000/svg"><g><path d="m391.227 413.592-46.111-57.334c-1.516-1.885-2.756-3.971-3.686-6.202l-59.107-141.787c-.051-.122-.104-.242-.162-.361-1.664-3.465-3.803-6.652-6.362-9.507l-5.064-21.358c-1.854-7.823-7.458-14.175-14.989-16.99-2.176-.814-4.424-1.288-6.678-1.454l30.877-149.582c.456-2.209-.105-4.505-1.53-6.254-1.424-1.748-3.559-2.763-5.814-2.763h-132.534c-3.839 0-7.059 2.899-7.459 6.718l-4.686 44.686c-6.71-4.616-14.643-7.109-22.963-7.109-10.854 0-21.057 4.228-28.732 11.901l-58.572 58.571c-4.546 4.546-7.049 10.59-7.049 17.019 0 4.36 1.155 8.541 3.314 12.2l-11.637 19.396c-3.732 6.222-2.756 14.15 2.374 19.281l8.858 8.858-11.231 18.718c-3.733 6.222-2.757 14.15 2.374 19.28l14.283 14.284c3.047 3.047 7.081 4.628 11.158 4.628 2.788 0 5.596-.739 8.122-2.255l18.719-11.231 15.147 15.147-11.232 18.719c-3.733 6.223-2.756 14.151 2.375 19.281l14.281 14.281c3.047 3.048 7.081 4.63 11.159 4.63 2.788 0 5.596-.739 8.123-2.255l18.719-11.231 44.433 44.434-11.231 18.718c-3.734 6.223-2.758 14.151 2.374 19.282l14.283 14.282c3.047 3.047 7.081 4.628 11.159 4.628 2.787 0 5.596-.739 8.122-2.254l18.719-11.231 15.147 15.147-11.231 18.718c-3.733 6.222-2.757 14.15 2.374 19.28l14.283 14.284c3.047 3.047 7.081 4.628 11.158 4.628 2.788 0 5.596-.739 8.123-2.255l18.718-11.231 15.147 15.147-11.23 18.717c-3.734 6.223-2.758 14.151 2.373 19.282l14.281 14.281c3.048 3.049 7.082 4.631 11.16 4.631 2.787 0 5.596-.74 8.121-2.256l18.719-11.231 1.717 1.717c4.692 4.691 10.855 7.037 17.018 7.037s12.326-2.346 17.018-7.037l11.715-11.715 20.5-20.5c14.799-14.8 16.001-38.116 2.83-54.322-.029-.035-.057-.071-.085-.106zm-48.859-36.816c-21.031-4.845-43.831-.15-61.414 14.111l-59.795-59.795 59.136-5.376c11.084 15.631 28.019 26.598 47.258 30.033l.032.077c1.475 3.537 3.44 6.845 5.842 9.831zm-78.711-169.4c2.009 2.008 3.656 4.314 4.9 6.858l1.57 3.767h-1.167c-4.143 0-7.5 3.357-7.5 7.5s3.357 7.5 7.5 7.5h7.42l13.276 31.847h-.512c-4.142 0-7.5 3.357-7.5 7.5s3.358 7.5 7.5 7.5h6.765l11.926 28.607h-.47c-4.143 0-7.5 3.357-7.5 7.5s3.357 7.5 7.5 7.5h6.723l6.191 14.85c-15.72-5.784-28.499-18.138-34.627-34.071l-6.671-17.343c.012-.318.011-.638-.019-.963-.162-1.785-.941-3.366-2.104-4.556l-31.532-81.983 5.267.986c4.959.991 9.476 3.412 13.064 7.001zm-3.36 72.718-82.626 7.511-14.688-14.688 91.359-8.306zm-68.82 21.317 74.417-6.765 5.759 14.973c.227.591.468 1.175.71 1.758l-65.01 5.91zm57.268-51.352-99.568 9.052-15.876-15.876 109.007-9.91zm7.394-69.556 1.478 6.234c-1.366-.425-2.751-.806-4.172-1.09l-20.569-3.849 9.154-6.57c2.499-1.793 5.582-2.202 8.462-1.127 2.88 1.078 4.938 3.411 5.647 6.402zm-169.305-113.699c9.996-9.996 26.258-9.994 36.251 0l5.445 5.444c2.148 2.148 3.076 5.21 2.479 8.189l-3.021 15.102c-3.806 19.032-.068 38.47 10.524 54.731 2.261 3.471 6.907 4.452 10.378 2.19 3.471-2.261 4.451-6.907 2.19-10.378-8.439-12.955-11.417-28.439-8.384-43.602l3.02-15.102c1.327-6.637-.202-13.422-4.096-18.805l5.202-49.573h116.573l-30.641 148.423-20.283 14.557-15.681-2.935c-9.372-1.754-18.27-5.814-25.733-11.74-3.243-2.576-7.962-2.033-10.538 1.209-2.576 3.244-2.034 7.962 1.209 10.537 9.369 7.44 20.539 12.536 32.302 14.738l33.979 6.359 8.702 22.625-117.216 10.656-27.625-27.625c10.731-13.126 16.57-29.409 16.57-46.59 0-19.703-7.673-38.228-21.606-52.161l-18.125-18.124zm-58.572 58.571 29.84-29.84 18.126 18.126c21.115 21.115 22.755 54.424 4.953 77.454l-52.919-52.919c-3.535-3.535-3.535-9.286 0-12.821zm2.241 107.939c-.309.184-.701.136-.956-.117l-14.283-14.284c-.254-.254-.303-.648-.118-.956l9.302-15.503 21.558 21.558zm58.573 58.572c-.312.185-.704.138-.958-.118l-14.283-14.282c-.254-.255-.303-.648-.118-.957l9.302-15.502 21.558 21.558zm87.858 87.858c-.309.185-.703.137-.958-.118l-14.283-14.282c-.254-.255-.303-.648-.117-.957l9.302-15.503 21.558 21.559zm58.57 58.572c-.309.186-.701.136-.956-.117l-14.283-14.284c-.254-.254-.303-.647-.118-.956l9.302-15.503 21.558 21.558zm58.571 58.573c-.307.185-.699.137-.955-.119l-14.282-14.282c-.255-.254-.303-.647-.117-.957l9.301-15.502 21.558 21.558zm38.762-7.26-5.857-5.857-35.143-35.144c-.003-.003-.006-.005-.009-.008l-23.412-23.412c-.003-.003-.005-.006-.008-.009l-23.429-23.428-123.001-123.001-35.144-35.143-71.57-71.57c-.254-.254-.303-.648-.118-.957l9.302-15.503 51.776 51.776c.001.001.002.003.004.004.001.001.003.002.004.004l199.139 199.139s.001.001.001.001.001.001.001.001l76.697 76.697-6.412 6.411c-3.534 3.533-9.285 3.535-12.821-.001zm45.036-32.215-15.196 15.197-71.033-71.033c22.229-17.026 54.251-15.405 74.599 4.884l13.177 16.384c.054.07.108.141.165.209 8.392 10.221 7.655 24.993-1.712 34.359z"/><path d="m489.785 255.028c8.23-10.654 14.172-22.517 17.825-34.917.232-.554.391-1.13.484-1.716 8.147-29.46 3.479-61.75-14.007-87.962-.205-.37-.447-.719-.713-1.052-3.674-5.367-7.886-10.475-12.649-15.238s-9.871-8.975-15.238-12.65c-.331-.265-.679-.505-1.046-.709-26.212-17.488-58.502-22.159-87.963-14.012-.589.093-1.168.253-1.726.487-12.403 3.655-24.268 9.598-34.923 17.831-.362.241-.703.507-1.015.803-3.208 2.542-6.307 5.286-9.27 8.249-19.149 19.149-30.132 44.285-31.215 71.188-.067.491-.087.99-.055 1.49-.026.969-.041 1.939-.041 2.912 0 28.554 11.12 55.398 31.311 75.59 10.929 10.929 23.927 19.133 37.949 24.391.726.414 1.524.703 2.362.855 11.389 3.971 23.406 6.02 35.508 6.02.734 0 1.469-.032 2.203-.047.32.042.641.067.961.067.416 0 .827-.046 1.234-.114 10.717-.44 21.451-2.49 31.816-6.24 3.896-1.409 5.91-5.71 4.501-9.604-1.409-3.896-5.712-5.909-9.604-4.501-4.909 1.777-9.914 3.098-14.959 4.001l9.477-18.599c6.034-2.167 11.744-5.078 17.042-8.687l20.617 3.265c-2.846 2.725-5.86 5.285-9.001 7.606-3.331 2.461-4.036 7.157-1.575 10.489 2.462 3.33 7.157 4.036 10.489 1.575 4.28-3.163 8.373-6.688 12.162-10.477 2.976-2.976 5.732-6.089 8.283-9.313.283-.303.544-.63.776-.981zm6.366-52.969-14.739-14.74c-.2-6.408-1.198-12.734-2.979-18.877l9.475-18.597c7.862 16.353 10.613 34.559 8.243 52.214zm-70.091 45.323-20.925-9.276 2.034-11.942 26.842-13.677 10.294 5.498-4.832 22.557c-4.176 2.832-8.67 5.123-13.413 6.84zm-48.188 30.039-3.946-24.92 21.622-2.237 19.871 8.809-11.469 22.509c-8.857-.134-17.644-1.546-26.078-4.161zm-64.609-86.492 22.532-11.481 8.81 19.872-2.237 21.621-25.038-3.965c-2.577-8.338-3.954-17.089-4.067-26.047zm62.349-88.197 17.877 17.878-16.178 14.519-21.255 4.553-3.957-24.979c7.337-5.191 15.262-9.185 23.513-11.971zm31.595 25.722c5.064.166 10.041.954 14.884 2.345l11.51 19.861-8.024 8.024-29.88-4.732-5.476-10.253zm-5.349 83.581-19.026-19.026 12.216-23.974 26.575 4.21 4.21 26.574zm-33.155-24.337-11.94 2.035-9.277-20.926c1.717-4.743 4.008-9.236 6.839-13.413l22.557-4.832 5.498 10.295zm-9.559 16.846 11.969-2.04 21.25 21.25-2.039 11.97-22.89 2.369c-1.976-1.546-3.872-3.219-5.656-5.003-1.783-1.782-3.457-3.678-5.003-5.655zm92.025.102-10.253-5.476-4.733-29.88 8.024-8.024 19.86 11.508c1.391 4.847 2.177 9.834 2.345 14.888zm27.594-69.892-11.486 22.544-18.808-10.899-10.899-18.807 22.544-11.487c3.487 2.607 6.837 5.479 10.004 8.646 3.166 3.167 6.038 6.516 8.645 10.003zm-33.742-27.794-18.596 9.475c-6.143-1.778-12.47-2.768-18.873-2.975l-14.743-14.743c17.654-2.37 35.86.381 52.212 8.243zm-106.281 19.272 3.263 20.601c-3.61 5.299-6.521 11.01-8.688 17.043l-18.61 9.482c3.159-17.652 11.412-33.943 24.035-47.126zm-14.596 107.01 20.691 3.277c1.955 2.513 4.077 4.919 6.337 7.179 2.26 2.259 4.665 4.38 7.176 6.334l3.262 20.593c-7.791-4.173-15.041-9.492-21.458-15.909-6.442-6.442-11.804-13.674-16.008-21.474zm135.594-15.686 14.52-16.178 17.878 17.878c-2.785 8.252-6.779 16.176-11.969 23.511l-24.98-3.957z"/><path d="m405.501 64.7c4.143 0 7.5-3.357 7.5-7.5v-49.7c0-4.143-3.357-7.5-7.5-7.5s-7.5 3.357-7.5 7.5v49.7c0 4.143 3.357 7.5 7.5 7.5z"/><path d="m349.306 74.267c1.39 2.406 3.91 3.751 6.502 3.751 1.272 0 2.563-.324 3.743-1.006 3.587-2.071 4.816-6.658 2.745-10.245l-24.851-43.041c-2.072-3.588-6.659-4.814-10.245-2.745-3.587 2.071-4.816 6.658-2.745 10.245z"/><path d="m269.881 78.3c-2.071 3.587-.842 8.174 2.745 10.245l43.042 24.851c1.182.682 2.471 1.006 3.743 1.006 2.592 0 5.113-1.345 6.502-3.751 2.071-3.587.842-8.174-2.745-10.245l-43.042-24.851c-3.589-2.071-8.175-.843-10.245 2.745z"/></g></svg>