<svg height="464pt" viewBox="0 0 464 464" width="464pt" xmlns="http://www.w3.org/2000/svg"><path d="m448 448h16v16h-16zm0 0"/><path d="m0 448h16v16h-16zm0 0"/><path d="m320 288h-96v160h-16v-256h-160v256h-16v16h400v-16h-112zm-176-72h48v48h-48zm0 72h48v48h-48zm-80-72h48v48h-48zm0 72h48v48h-48zm96 160v-80h-64v80h-16v-96h96v96zm128-144h16v16h-16zm0 32h16v16h-16zm0 32h16v16h-16zm-48-64h16v16h-16zm0 32h16v16h-16zm0 32h16v16h-16zm48 80v-32h-32v32h-16v-48h64v48zm0 0"/><path d="m80 232h16v16h-16zm0 0"/><path d="m128 39.097656-25.566406 40.902344h51.132812zm0 0"/><path d="m120 112h16v16h24v-32h-64v32h24zm0 0"/><path d="m80 304h16v16h-16zm0 0"/><path d="m400 64v-64h-144v240h56v32h24v32h128v-240zm-128 32h16v4c0 6.617188 5.382812 12 12 12h24c6.617188 0 12-5.382812 12-12s-5.382812-12-12-12h-24c-15.441406 0-28-12.558594-28-28s12.558594-28 28-28h4v-16h16v16h4c15.441406 0 28 12.558594 28 28v4h-16v-4c0-6.617188-5.382812-12-12-12h-24c-6.617188 0-12 5.382812-12 12s5.382812 12 12 12h24c15.441406 0 28 12.558594 28 28s-12.558594 28-28 28h-4v16h-16v-16h-4c-15.441406 0-28-12.558594-28-28zm0 80h120v16h-120zm0 48v-16h120v16zm176 64h-80v-16h80zm0-32h-80v-16h80zm-24-48v16h-16v-16zm-16-16v-16h16v16zm40-32h-80v-16h80zm0-32h-80v-16h80zm0-32h-80v-16h80zm0 0"/><path d="m160 232h16v16h-16zm0 0"/><path d="m416 11.3125v36.6875h36.6875zm0 0"/><path d="m224 256h72v16h-72zm0 0"/><path d="m64 144h128v32h-128zm0 0"/><path d="m160 304h16v16h-16zm0 0"/></svg>