<?xml version="1.0" encoding="iso-8859-1"?>
<!-- Generator: Adobe Illustrator 19.0.0, SVG Export Plug-In . SVG Version: 6.00 Build 0)  -->
<svg version="1.1" id="Capa_1" xmlns="http://www.w3.org/2000/svg" xmlns:xlink="http://www.w3.org/1999/xlink" x="0px" y="0px"
	 viewBox="0 0 512 512" style="enable-background:new 0 0 512 512;" xml:space="preserve">
<g>
	<g>
		<path d="M504.5,440.887h-8.532V272.032c0-4.142-3.358-7.5-7.5-7.5c-4.142,0-7.5,3.358-7.5,7.5v136.791h-33.097v-56.629
			c0-4.142-3.358-7.5-7.5-7.5H400.29c-4.142,0-7.5,3.358-7.5,7.5v56.629h-33.097V263.5h8.532c4.142,0,7.5-3.358,7.5-7.5v-24.564
			h105.242v8.532c0,4.142,3.358,7.5,7.5,7.5c4.142,0,7.5-3.358,7.5-7.5v-8.532h8.532c4.142,0,7.5-3.358,7.5-7.5
			c0-4.142-3.358-7.5-7.5-7.5H394.317L263.5,139.485V119.21h48.613c4.142,0,7.5-3.358,7.5-7.5V71.629c0-4.142-3.358-7.5-7.5-7.5
			H263.5v-0.516c0-4.142-3.358-7.5-7.5-7.5c-4.142,0-7.5,3.358-7.5,7.5v75.872l-130.817,76.951H7.5c-4.142,0-7.5,3.358-7.5,7.5
			c0,4.142,3.358,7.5,7.5,7.5h8.532v136.789c0,4.142,3.358,7.5,7.5,7.5c4.142,0,7.5-3.358,7.5-7.5V231.436h105.242V256
			c0,4.142,3.358,7.5,7.5,7.5h8.532v145.323h-33.097v-56.629c0-4.142-3.358-7.5-7.5-7.5h-40.08c-4.142,0-7.5,3.358-7.5,7.5v56.629
			H31.032v-8.535c0-4.142-3.358-7.5-7.5-7.5c-4.142,0-7.5,3.358-7.5,7.5v40.599H7.5c-4.142,0-7.5,3.358-7.5,7.5
			c0,4.142,3.358,7.5,7.5,7.5h497c4.142,0,7.5-3.358,7.5-7.5C512,444.245,508.642,440.887,504.5,440.887z M263.5,79.129h41.113
			v25.081H263.5V79.129z M407.791,359.693h25.081v49.129h-25.081V359.693z M256,152.476l108.732,63.96H147.268L256,152.476z
			 M151.274,248.5v-17.064h209.451V248.5H151.274z M344.693,263.5v145.323h-17.064V263.5H344.693z M312.629,359.694v49.129h-33.097
			v-49.129H312.629z M279.532,344.693v-25.081h33.097v25.081H279.532z M279.532,304.613V263.5h33.097v41.113H279.532z
			 M264.532,263.5v145.323h-17.064V263.5H264.532z M199.371,344.694v-25.081h33.097v25.081H199.371z M232.468,359.693v49.129
			h-33.097v-49.129H232.468z M199.371,304.613V263.5h33.097v41.113H199.371z M184.371,263.5v145.323h-17.064V263.5H184.371z
			 M79.129,359.693h25.081v49.129H79.129V359.693z M136.273,440.887H31.032v-17.064h105.241V440.887z M360.725,440.887H151.273
			v-17.064h209.452V440.887z M480.968,440.887H375.725v-17.064h105.243V440.887z"/>
	</g>
</g>
<g>
	<g>
		<path d="M91.67,256.516c-15.186,0-27.541,12.354-27.541,27.541v28.056c0,4.142,3.358,7.5,7.5,7.5h40.081
			c4.142,0,7.5-3.358,7.5-7.5v-28.056C119.21,268.871,106.856,256.516,91.67,256.516z M104.21,304.613H79.129v-20.556
			c0-6.915,5.625-12.541,12.541-12.541c6.915,0,12.54,5.625,12.54,12.541V304.613z"/>
	</g>
</g>
<g>
	<g>
		<path d="M420.331,256.516c-15.186,0-27.54,12.355-27.54,27.541v28.056c0,4.142,3.358,7.5,7.5,7.5h40.081
			c4.142,0,7.5-3.358,7.5-7.5v-28.056C447.872,268.871,435.518,256.516,420.331,256.516z M432.871,304.613H407.79v-20.556
			c0-6.915,5.625-12.541,12.54-12.541c6.916,0,12.541,5.626,12.541,12.541V304.613z"/>
	</g>
</g>
<g>
</g>
<g>
</g>
<g>
</g>
<g>
</g>
<g>
</g>
<g>
</g>
<g>
</g>
<g>
</g>
<g>
</g>
<g>
</g>
<g>
</g>
<g>
</g>
<g>
</g>
<g>
</g>
<g>
</g>
</svg>
